<svg width="36" height="36" viewBox="0 0 36 36" fill="none" xmlns="http://www.w3.org/2000/svg">
<path d="M17.9985 11.0652C16.159 11.0652 14.3948 11.7959 13.094 13.0967C11.7933 14.3974 11.0625 16.1616 11.0625 18.0012C11.0625 19.8407 11.7933 21.6049 13.094 22.9057C14.3948 24.2064 16.159 24.9372 17.9985 24.9372C19.838 24.9372 21.6022 24.2064 22.903 22.9057C24.2037 21.6049 24.9345 19.8407 24.9345 18.0012C24.9345 16.1616 24.2037 14.3974 22.903 13.0967C21.6022 11.7959 19.838 11.0652 17.9985 11.0652ZM17.9985 22.5057C16.8034 22.5057 15.6573 22.0309 14.8123 21.1859C13.9672 20.3409 13.4925 19.1948 13.4925 17.9997C13.4925 16.8046 13.9672 15.6585 14.8123 14.8135C15.6573 13.9684 16.8034 13.4937 17.9985 13.4937C19.1936 13.4937 20.3397 13.9684 21.1847 14.8135C22.0298 15.6585 22.5045 16.8046 22.5045 17.9997C22.5045 19.1948 22.0298 20.3409 21.1847 21.1859C20.3397 22.0309 19.1936 22.5057 17.9985 22.5057Z" fill="white" fill-opacity="0.78"/>
<path d="M25.209 12.4272C26.102 12.4272 26.826 11.7033 26.826 10.8102C26.826 9.91719 26.102 9.19324 25.209 9.19324C24.316 9.19324 23.592 9.91719 23.592 10.8102C23.592 11.7033 24.316 12.4272 25.209 12.4272Z" fill="white" fill-opacity="0.78"/>
<path d="M30.7995 9.1662C30.4522 8.26947 29.9216 7.45513 29.2415 6.77529C28.5614 6.09545 27.7469 5.56511 26.85 5.2182C25.8005 4.82424 24.6918 4.61121 23.571 4.5882C22.1265 4.5252 21.669 4.5072 18.006 4.5072C14.343 4.5072 13.8735 4.5072 12.441 4.5882C11.3211 4.61004 10.2131 4.8231 9.165 5.2182C8.2679 5.5647 7.45314 6.09491 6.773 6.7748C6.09285 7.45468 5.56234 8.26924 5.2155 9.1662C4.82146 10.2156 4.60892 11.3245 4.587 12.4452C4.5225 13.8882 4.503 14.3457 4.503 18.0102C4.503 21.6732 4.503 22.1397 4.587 23.5752C4.6095 24.6972 4.821 25.8042 5.2155 26.8557C5.56331 27.7523 6.09434 28.5666 6.77465 29.2464C7.45496 29.9262 8.26959 30.4566 9.1665 30.8037C10.2126 31.2135 11.3211 31.4418 12.444 31.4787C13.8885 31.5417 14.346 31.5612 18.009 31.5612C21.672 31.5612 22.1415 31.5612 23.574 31.4787C24.6947 31.4559 25.8033 31.2434 26.853 30.8502C27.7496 30.5025 28.5639 29.9717 29.244 29.2917C29.924 28.6116 30.4548 27.7973 30.8025 26.9007C31.197 25.8507 31.4085 24.7437 31.431 23.6217C31.4955 22.1787 31.515 21.7212 31.515 18.0567C31.515 14.3922 31.515 13.9272 31.431 12.4917C31.4135 11.3551 31.1999 10.2301 30.7995 9.1662ZM28.9725 23.4642C28.9628 24.3287 28.805 25.1851 28.506 25.9962C28.2807 26.5795 27.9359 27.1092 27.4936 27.5512C27.0513 27.9932 26.5214 28.3378 25.938 28.5627C25.1358 28.8604 24.2885 29.0182 23.433 29.0292C22.008 29.0952 21.606 29.1117 17.952 29.1117C14.295 29.1117 13.9215 29.1117 12.4695 29.0292C11.6144 29.0187 10.7675 28.8609 9.966 28.5627C9.38053 28.3392 8.8485 27.9952 8.40433 27.5531C7.96017 27.111 7.61375 26.5806 7.3875 25.9962C7.09267 25.1938 6.93497 24.3475 6.921 23.4927C6.8565 22.0677 6.8415 21.6657 6.8415 18.0117C6.8415 14.3562 6.8415 13.9827 6.921 12.5292C6.93069 11.6652 7.08848 10.8093 7.3875 9.9987C7.845 8.8152 8.7825 7.8837 9.966 7.4307C10.7679 7.13391 11.6145 6.97615 12.4695 6.9642C13.896 6.8997 14.2965 6.8817 17.952 6.8817C21.6075 6.8817 21.9825 6.8817 23.433 6.9642C24.2886 6.9745 25.136 7.13231 25.938 7.4307C26.5214 7.65611 27.0512 8.00101 27.4935 8.44325C27.9357 8.88549 28.2806 9.41531 28.506 9.9987C28.8008 10.8011 28.9585 11.6474 28.9725 12.5022C29.037 13.9287 29.0535 14.3292 29.0535 17.9847C29.0535 21.6387 29.0535 22.0317 28.989 23.4657H28.9725V23.4642Z" fill="white" fill-opacity="0.78"/>
</svg>
