<svg width="36" height="36" viewBox="0 0 36 36" fill="none" xmlns="http://www.w3.org/2000/svg">
<path d="M29.4495 11.9953C29.469 12.2578 29.469 12.5188 29.469 12.7798C29.469 20.7673 23.3895 29.9713 12.279 29.9713C8.856 29.9713 5.676 28.9798 3 27.2578C3.486 27.3133 3.954 27.3328 4.4595 27.3328C7.17899 27.3394 9.82147 26.43 11.961 24.7513C10.7001 24.7285 9.47786 24.3125 8.46486 23.5614C7.45185 22.8103 6.69868 21.7617 6.3105 20.5618C6.684 20.6173 7.059 20.6548 7.452 20.6548C7.9935 20.6548 8.538 20.5798 9.0435 20.4493C7.67514 20.173 6.44471 19.4313 5.56143 18.3503C4.67815 17.2694 4.19654 15.9158 4.1985 14.5198V14.4448C5.004 14.8933 5.9385 15.1738 6.9285 15.2113C6.09913 14.6602 5.41908 13.9124 4.94901 13.0345C4.47894 12.1567 4.23347 11.1761 4.2345 10.1803C4.2345 9.05832 4.533 8.02932 5.0565 7.13232C6.57471 8.99985 8.46825 10.5277 10.6145 11.6168C12.7608 12.706 15.1118 13.3321 17.5155 13.4548C17.4225 13.0048 17.3655 12.5383 17.3655 12.0703C17.3651 11.2768 17.5211 10.4909 17.8246 9.75768C18.1281 9.02445 18.5732 8.35823 19.1343 7.7971C19.6954 7.23597 20.3616 6.79094 21.0949 6.48744C21.8281 6.18394 22.6139 6.02793 23.4075 6.02832C25.1475 6.02832 26.718 6.75732 27.822 7.93632C29.1747 7.67475 30.4718 7.18095 31.656 6.47682C31.2051 7.87304 30.2606 9.05698 28.9995 9.80682C30.1992 9.66999 31.3717 9.3545 32.478 8.87082C31.6517 10.0755 30.6278 11.1318 29.4495 11.9953Z" fill="white" fill-opacity="0.78"/>
</svg>
